# xmcd
#
# Track frame offsets:
#	150
#	35759
#	63542
#	86555
#	105697
#	135663
#	177525
#	196137
#	211593
#	240705
#	268773
#	297008
#	326156
#
# Disc length: 4604 seconds
#
# Revision: 1
# Processed by: cddbd v1.5.2PL0 Copyright (c) Steve Scherf et al.
# Submitted via: audiograbber 1.83.01
#
DISCID=c311fa0d
DTITLE=Charly's Club Concerts - Totally Live at Charly's vol II
DYEAR=2007
DGENRE=
TTITLE0=Walter Trout - Sweet As A Flower
TTITLE1=Jesus Volt - The Cornbread
TTITLE2=Rob Tognoni - Dark Angel
TTITLE3=Steve Schuffert Band - Freight Train Love
TTITLE4=Steve Fister - Come Together
TTITLE5=Todd Wolfe - One Lost Love
TTITLE6=Candye Kane - For Your Love
TTITLE7=Willi Lohmann Kapelle - Right Now
TTITLE8=The Hamsters - Somebody´s Leaving
TTITLE9=Carl Verheyen - Highland Shuffle
TTITLE10=Chris Farlowe - Miss You Fever
TTITLE11=John Hayes - We Both Been Used
TTITLE12=Chris Farlowe - Hotel Eingang
EXTD=
EXTT0=
EXTT1=
EXTT2=
EXTT3=
EXTT4=
EXTT5=
EXTT6=
EXTT7=
EXTT8=
EXTT9=
EXTT10=
EXTT11=
EXTT12=
PLAYORDER=
